<svg id="Capa_1" data-name="Capa 1" xmlns="http://www.w3.org/2000/svg" viewBox="0 0 277.85 240.94"><path d="M248.42,136.55c-.59,4-1,8.11-1.79,12.13A100.78,100.78,0,0,1,212.72,208c-21.84,19-47.43,27.14-76.21,25.16-42.84-2.95-80.35-34-91.72-75.59A105.42,105.42,0,0,1,41.05,131c0-3.61,1.65-5.71,4.58-5.74s4.59,2,4.72,5.64c1.22,34.78,16.71,61.36,46,80,.78.5,1.6.93,2.42,1.38a4.33,4.33,0,0,0,.7.12l10.22-30.05c-1.88-.38-3.64-.61-5.33-1.11a18.9,18.9,0,0,1-12.68-24.3c1.12-3.37,2.4-6.7,3.7-10,1.08-2.75,3.45-3.9,5.91-3s3.73,3.38,2.76,6.25S101.86,156,100.8,159c-2.6,7.26,1.84,13.61,9.56,13.72,1.7,0,3.41,0,5.11,0,4.38.06,6.37,2.76,5,6.91q-5.82,17.26-11.72,34.5c-.27.79-.53,1.59-.83,2.52A91.92,91.92,0,0,0,140.21,224c0-2.93-.23-5.7,0-8.41a23.65,23.65,0,0,1,7.82-15.13q13.47-12.66,26.85-25.4c3.14-3,3.42-4.28,1.77-8.2-1.42-3.35-2.9-6.67-4.25-10a34.22,34.22,0,0,0-7.27-11.68A13.89,13.89,0,0,1,167,124.27c4.8-3.68,9.72-7.18,14.73-10.56,4.7-3.17,9.74-3.25,14.77-.71,2.42,1.22,4.71,2.68,7.09,4,2.65,1.44,4.56,1.25,6.8-.76a16.73,16.73,0,0,0-5.51-28.43c-2.11-.74-4.32-1.2-6.47-1.83-9.39-2.73-13.43-12.15-9-20.82a2.69,2.69,0,0,0-.06-2.08c-3.23-6.69-6.49-13.36-9.85-20a4.11,4.11,0,0,0-2.15-1.83c-3.44-1.18-6.93-2.21-10.42-3.22-3-.89-4.62-3.14-3.94-5.81s3.19-4,6.26-3.13q63,17.6,77.31,81.39c.93,4.13,1.28,8.39,1.9,12.59ZM192.5,48.37c2,4.15,3.76,7.66,5.48,11.18a10,10,0,0,1-.16,9.79c-2,3.52-.73,6.54,3.15,7.7,2.15.65,4.36,1.12,6.48,1.84,9.82,3.35,15.78,10.23,17.55,20.37,1.72,9.88-1.55,18.24-9.32,24.58-4.9,4-10.42,4.47-16.09,1.57q-3.21-1.64-6.26-3.55a6.15,6.15,0,0,0-7.71.35c-3.88,3-7.91,5.71-11.87,8.57s-4.07,5.74-.82,9.28a30.62,30.62,0,0,1,5.28,6.95c2.8,5.77,5.19,11.74,7.59,17.7s1.13,11.37-3.3,16c-.75.79-1.57,1.5-2.36,2.24l-26,24.62A13.94,13.94,0,0,0,149.9,222c.37,1.5,1,2.25,2.71,2,3.59-.62,7.24-.89,10.79-1.62,47.28-9.81,79.4-52.43,75.26-100.53C236,90.84,221.11,67,195.18,49.93,194.51,49.49,193.79,49.12,192.5,48.37Z"/><path d="M139.76,111.06V92.38a21.58,21.58,0,0,1,.1-3,4.59,4.59,0,0,1,9.16.34c.09,1.63,0,3.26,0,4.89,0,7.36,0,14.72,0,22.08,0,4.57-2.71,6.45-7.08,5-12.15-4.12-24.32-8.24-36.44-12.46-1.76-.61-2.69-.3-3.84,1.17-5.48,7-11.11,13.93-16.67,20.88-3.71,4.64-7,4.37-9.74-.81-6.61-12.35-13.18-24.72-19.86-37a5.87,5.87,0,0,0-3-2.5c-12.61-4.24-25.26-8.35-37.9-12.49-2.82-.93-4.17-2.38-4.18-4.63,0-2.52,1.52-3.82,3.68-4.8Q77.77,40.35,141.46,11.65c4.49-2,7.58-.09,7.59,4.78q0,18.83,0,37.66c0,3.71-1.63,5.73-4.56,5.76s-4.72-2.11-4.72-5.89c0-7.29,0-14.57,0-21.85V29.58l-.48-.24L88,93.47ZM27.85,73C37.22,76,46,78.86,54.78,81.8a3.2,3.2,0,0,0,3.53-.68Q85.2,58.65,112.18,36.24l1.4-1.22-.36-.44ZM75,110.19l.5-.13c0-3.83.15-7.66-.05-11.48a10.88,10.88,0,0,1,2.72-7.83c10.58-13,21-26.21,31.51-39.34a14.67,14.67,0,0,0,.89-1.33l-.26-.2L63.58,88.8C67.47,96.09,71.24,103.14,75,110.19ZM85,116.44l8.93-11.16-8.93-3Z"/><path d="M52.27,109.89a4.65,4.65,0,0,1-4.66,4.74A4.79,4.79,0,0,1,43,110a4.67,4.67,0,0,1,4.73-4.68A4.48,4.48,0,0,1,52.27,109.89Z"/><path d="M149,71.88a4.51,4.51,0,0,1-4.41,4.71A4.63,4.63,0,0,1,139.81,72a4.73,4.73,0,0,1,4.58-4.64A4.6,4.6,0,0,1,149,71.88Z"/></svg>