<svg id="Capa_1" data-name="Capa 1" xmlns="http://www.w3.org/2000/svg" viewBox="0 0 277.85 240.94"><path d="M15,77.21c1.67-4.35,4.82-5.91,9.45-5.9q80,.14,160.09.06c6.87,0,9.31,2.32,9.54,9.25.11,3.45,0,6.91,0,10.64h3c2.26,0,4.53-.15,6.79-.1,9.25.16,10.11,4.33,10.08,10.27-.14,26-.2,52.08,0,78.12.07,7-3.09,10.41-10.26,10.38-43.42-.18-86.83-.09-130.25-.09H70.08a102,102,0,0,0,33.15,25.85c19.66,9.55,40.39,12.28,61.86,8.85,44.67-7.15,82.52-40.43,89.49-87.31C262.45,84.31,235,43.8,195.69,24.9c-41.94-20.18-87.2-11.18-116,15.72l6.72,6.27-25,7.89c1.93-8.66,3.77-16.94,5.7-25.61l6.74,6.13c3.32-2.58,6.53-5.26,9.92-7.68A111.69,111.69,0,0,1,154.43,6.48c50.9,1.85,95.21,38.51,106,88.25,8,36.67.5,70.09-24.12,98.83-17.83,20.82-40.82,33.15-67.76,38-25.08,4.51-49.07,1.09-71.73-10.73a108.67,108.67,0,0,1-34.51-28.53,5.75,5.75,0,0,0-5.26-2.51c-4.68.2-9.38.09-14.07.05-5.09-.05-8.06-3.09-8.09-8.22,0-3.78,0-7.57,0-11.57-2.36,0-4.51,0-6.66,0s-4.05,0-6.05-.2A8.19,8.19,0,0,1,15,164.55Zm27.44,47.86v31q21.84,4.35,26.17,26.16c.57.05,1.13.14,1.68.14q54,0,107.93,0c1.46,0,2-.35,2.35-1.92,2.29-10.85,8.64-18.41,18.94-22.53a66.53,66.53,0,0,1,6.65-1.93v-31.1l-2.22-.53c-12.39-3-20.19-10.74-23.17-23.1-.55-2.3-1.43-2.66-3.51-2.65q-52.87.09-105.75,0h-2.8C63.84,115.35,59.44,119.74,42.47,125.07Zm-19.73-46v83.31H34.88v-3c0-19.56.16-39.13-.09-58.69-.08-6.19,3.61-9.52,9.4-9.5,46.32.15,92.64.08,139,.08h3.21V79.05Zm19.81,85.14v18h18C60.49,174.2,50.77,164.43,42.55,164.19Zm-.18-65.37v18.05c8.49-.33,18.13-10,18.13-18.05Zm163.84,83.33v-18c-8.37.33-18.68,10.82-17.77,18Zm-.08-65.33v-18H188.34C188.07,106.59,197.94,116.54,206.13,116.82Z"/><path d="M125.08,136.83a13.82,13.82,0,0,1,5,26.86,2.5,2.5,0,0,0-2,2.67c-.07,2.62-1.45,4-3.57,4s-3.66-1.28-3.79-4.07c-.07-1.57-.7-2.15-2.08-2.68a13.57,13.57,0,0,1-9.13-11.5c-.41-2.88.83-4.8,3.16-5.06s3.92,1.24,4.23,4.18a6,6,0,0,0,4.31,5.31,8.39,8.39,0,0,0,8.85-1.52c2-1.81,2.22-4.16,1.5-6.69a4.9,4.9,0,0,0-3.85-3.62,23.13,23.13,0,0,0-4.56-.47,13.93,13.93,0,0,1-13.47-11.41,13.74,13.74,0,0,1,8.88-15.46c1.5-.54,2.13-1.18,2.2-2.84.11-2.63,1.52-3.93,3.68-3.9s3.59,1.4,3.63,4c0,1.73.74,2.26,2.2,2.82a13.49,13.49,0,0,1,9.07,12.06A3.66,3.66,0,0,1,136,133.8a3.83,3.83,0,0,1-4.07-3.34c-1.09-5.09-4.36-7.38-9.46-6.64a6.54,6.54,0,0,0,.89,13C124,136.85,124.51,136.83,125.08,136.83Z"/><path d="M183.82,141.28c0,1.62.05,3.23,0,4.85-.14,3.94-2.1,6.74-5.93,7.12a94.45,94.45,0,0,1-14.47.19c-3.18-.18-5.35-2.52-5.61-6.05a101.15,101.15,0,0,1-.06-14.25c.2-3.22,2.73-5.11,5.73-5.36a116.63,116.63,0,0,1,14.24-.19c3.24.14,5.06,2.47,5.61,5.5.48,2.68.53,5.44.76,8.17Zm-7.76,4.8v-11H165.13v11Z"/><path d="M65,139.72c0-1.62,0-3.24,0-4.85.1-3.89,2.08-6.68,5.94-7.07a91.47,91.47,0,0,1,14.24-.21c3.43.19,5.6,2.67,5.9,6.62a109.45,109.45,0,0,1,.06,13.31,6,6,0,0,1-5.68,5.73,94.48,94.48,0,0,1-14.47.18c-3.54-.22-5.54-3-5.91-7.17-.19-2.17,0-4.36,0-6.54Zm18.73-4.66H72.64V146H83.7Z"/></svg>