<svg id="Capa_1" data-name="Capa 1" xmlns="http://www.w3.org/2000/svg" viewBox="0 0 277.85 240.94"><path d="M185.19,207.81c-.52,6.08-.95,11.78-1.51,17.47-.76,7.76-4.91,11.61-12.72,11.23-10.65-.51-21.29-1.39-31.92-2.16q-16.48-1.18-32.95-2.47c-7.41-.58-10.85-4.29-11-11.79,0-3,.11-5.9.13-8.85s0-5.7,0-8.86c-5.29-.4-10.8-.73-16.3-1.27-12.65-1.24-25.48-1.26-37.78-5.13-12.79-4-19.45-11.83-19.82-25.19-.44-15.94-.3-31.91.16-47.86C21.92,108.81,23,94.7,24,80.6,24.75,69,31.23,61.94,42.74,60.21a45.07,45.07,0,0,1,9.07-.3,2.78,2.78,0,0,0,3.26-2c5.17-12.48,10.36-25,15.7-37.37A53.38,53.38,0,0,1,76,10.94C79.54,5.87,84.81,4,90.64,5.84c7.43,2.3,14.69,5.18,21.92,8.07,44,17.56,87.65,35.94,130.75,55.61a76.87,76.87,0,0,1,14.5,8.56c10.41,7.9,13.56,18.53,8.36,30.45A410.8,410.8,0,0,1,241.66,157c-1.26,2.08-1.39,4.92-1.73,7.45-1.48,10.91-2.66,21.86-4.28,32.75-1.35,9.07-6.05,12.73-15.15,12.44-3.12-.1-6.24-.28-9.36-.44Zm.24-5c12.69.63,25.06,1.31,37.44,1.82a6.51,6.51,0,0,0,6.91-5.2,68.09,68.09,0,0,0,1.72-9.18c2.4-18.83,4.85-37.66,7.05-56.51,1.45-12.4,2.64-24.83,3.71-37.26a12.27,12.27,0,0,0-11-13.47c-8.43-1-16.89-1.81-25.34-2.66q-24.33-2.48-48.65-4.9L113.3,71c-16.56-1.67-33.11-3.46-49.68-5a124,124,0,0,0-20.19-.66c-8.88.65-13.75,6.36-14.38,15.2-.37,5.19-.82,10.37-1.19,15.56C26.19,120,25.47,143.81,26,167.67c.3,14.22,5.47,20.59,19.16,24.34a11.15,11.15,0,0,0,1.27.3c9.45,1.18,18.88,2.48,28.35,3.48,6.87.73,13.78,1,20.83,1.56.06-1.07.13-1.92.16-2.77.34-8.32.58-16.64,1-25,.32-5.67,2.16-10.71,8.09-12.72,2.34-.79,2.71-2,2.86-4.1.52-7.38,1.53-14.69,5.23-21.28,7.7-13.74,24.35-20.68,40.78-17.09,13.36,2.91,22.4,12.63,24.66,27.21.92,6,.91,12.05,1.34,18.45,5.2,1,7.68,4.82,7.95,10.38a31.48,31.48,0,0,1-.15,3.63C186.86,183.52,186.16,192.94,185.43,202.82Zm-84.6-7.9H101c-.12,2.51-.28,5-.33,7.54-.15,6.41-.43,12.82-.28,19.23.07,3.38,1.5,4.64,4.84,5,5,.54,10,.87,15,1.24,16.86,1.23,33.72,2.47,50.58,3.62,5.18.35,7.27-1.32,7.72-6.54q2.2-25.78,4.06-51.6c.5-7.24-.79-8.28-8.15-8.72C162,164,149.5,163.09,137,162.27c-8-.53-16.08-1.13-24.13-1.55-7.59-.4-10.62,2.29-11,9.77C101.45,178.63,101.18,186.78,100.83,194.92Zm141.55-50.48.5.17c.22-.35.47-.68.65-1,5.59-11.25,11.27-22.45,16.67-33.79a33.33,33.33,0,0,0,3-9.88c1.09-8.15-3.19-14-9.39-18.48a79.64,79.64,0,0,0-13.27-7.6Q176,44.5,110,18.38c-6.43-2.55-12.88-5.09-19.41-7.38-3.65-1.28-7.48-1.12-10,2.26s-4.19,7-6.32,10.69c1.31.58,1.92.88,2.56,1.13,39.79,15.46,79.64,30.76,118.54,48.4a9.24,9.24,0,0,0,2.74.72c10.85,1.21,21.71,2.35,32.57,3.58,10.33,1.17,17,8.72,16.46,19.07-.49,8.83-1.48,17.63-2.37,26.42C244.1,130.34,243.2,137.38,242.38,144.44ZM163,159.25c-.23-4.07-.15-7.7-.7-11.23-1-6.42-5.17-10.5-11.52-11.81A20.39,20.39,0,0,0,127,151.29a51.26,51.26,0,0,0-.73,5.44ZM98.42,64.48l.11-.53L63.62,50.37,59.47,60.49Z"/><path d="M139.33,9.48c1.06.42,1.71.65,2.34.94q19.11,8.73,38.22,17.48c.55.25,1.31.43,1.55.87.47.9,1.17,2.26.82,2.87a3.91,3.91,0,0,1-2.86,1.44c-.93.05-1.91-.7-2.85-1.14q-18.41-8.42-36.79-16.87c-.63-.28-1.49-.5-1.76-1a4.07,4.07,0,0,1-.63-2.76C137.62,10.52,138.72,10,139.33,9.48Z"/><path d="M191.88,35.22c-.59.4-1.47,1.42-2.52,1.62-1.73.33-4.38-1.83-4.36-3.27a2.38,2.38,0,0,1,2.59-2.6A4.63,4.63,0,0,1,191.88,35.22Z"/><path d="M96.88,92.47c-.87,7.77-1.62,15.63-2.67,23.44-.7,5.14-4,7.56-9.18,6.83-8.84-1.23-17.64-2.7-26.45-4.08-2.74-.43-5.49-.83-8.21-1.36-5.5-1.06-8.43-4.37-8.2-10,.3-7.27.78-14.56,1.64-21.78.67-5.73,4.95-8.6,10.16-7.89,10.89,1.48,21.85,2.49,32.78,3.79,4.5.53,8.56,1.94,9.75,7.08A29.07,29.07,0,0,1,96.88,92.47Zm-22.45,5.4c.71-4.36,1.37-8.49,2.1-13l-13.36-1.2c-.52,4.32-1,8.22-1.49,12.31Zm-2.76,17.71,2-12.72L61,101c-.55,4.37-1.06,8.37-1.6,12.6Zm5,.86c3.36.48,6.42,1,9.49,1.32,1.91.22,2.91-.87,3.13-2.69.32-2.66.63-5.33.81-8,0-.5-.46-1.43-.84-1.5-3.45-.7-6.93-1.25-10.61-1.87C78,108,77.39,112.08,76.72,116.44Zm14.09-15.83c.17-1.3.31-2.4.47-3.5,1.32-9.4.32-10.62-9.2-11.17-.14,0-.29.16-.64.37L79.5,98.71ZM58.17,83.27a36.27,36.27,0,0,0-6.3-.58,3.49,3.49,0,0,0-2.54,2.1c-.68,3-.92,6.18-1.34,9.4l8.64,1C57.16,91.14,57.65,87.31,58.17,83.27Zm-3.72,29.19,1.45-12.07c-1.54-.26-2.8-.51-4.07-.67s-2.55-.22-4.12-.35c-.16,2.36-.38,4.58-.44,6.8C47.14,111.2,49.07,112.92,54.45,112.46Z"/><path d="M219.16,106.18c0,9.41-3.86,15.15-10.06,17.32-5.84,2-12,0-16.39-5.42-8.25-10.14-5.39-23.11,6-27.45a11.31,11.31,0,0,1,11.75,1.62C215.75,96.41,219.1,101.64,219.16,106.18Z"/><path d="M57.26,185.61c-12.74-.18-22.57-9.58-23.38-22.45-.32-5.23.31-10.53.61-15.79.1-1.8.86-3.33,3-3s2.05,2,2,3.61c-.24,5.09-.85,10.21-.51,15.26.73,10.89,9.44,18,20.34,17.16,1.72-.14,3.27,0,3.55,2.05.31,2.18-1.2,2.85-3,3C58.83,185.57,57.79,185.58,57.26,185.61Z"/><path d="M134.79,204.92a10.64,10.64,0,0,0-1.87-8c-2.52-3.91-2-8.35.54-12.28a8.08,8.08,0,0,1,8.73-3.82,11.27,11.27,0,0,1,8.87,7.53c1.51,3.86.29,7.21-2.09,10.41a11,11,0,0,0-1.75,4.32c-.5,2.54-.46,5.19-1.06,7.69-.81,3.34-3.56,5.26-6.41,4.93s-4.8-2.83-4.95-6.38C134.74,207.93,134.79,206.54,134.79,204.92Z"/></svg>